<svg xmlns="http://www.w3.org/2000/svg" viewBox="0 0 48 48" width="24" height="24">
  <path fill="#EA4335" d="M24 9.5c3.5 0 6.3 1.2 8.3 3.2l6.1-6.1C34.7 3 29.7 1 24 1 14.8 1 7 6.7 3.6 14.6l7.1 5.5C12.2 14.2 17.6 9.5 24 9.5z"/>
  <path fill="#34A853" d="M46.5 24.5c0-1.6-.1-3.1-.4-4.5H24v9h12.7c-.6 3-2.3 5.5-4.9 7.2l7.6 5.9c4.4-4.1 7.1-10.2 7.1-17.6z"/>
  <path fill="#FBBC05" d="M10.7 28.1a14.6 14.6 0 0 1 0-8.1l-7.1-5.5A23.8 23.8 0 0 0 0 24a23.8 23.8 0 0 0 3.6 9.4l7.1-5.3z"/>
  <path fill="#4285F4" d="M24 47c6.5 0 12-2.1 16-5.9l-7.6-5.9c-2.1 1.4-4.8 2.3-8.4 2.3-6.4 0-11.8-4.3-13.8-10.3l-7.1 5.3C7 41.3 14.8 47 24 47z"/>
</svg>
